<svg width="200" height="200" viewBox="0 0 200 200" xmlns="http://www.w3.org/2000/svg">
  <defs>
    <linearGradient id="bodyGrad" x1="0%" y1="0%" x2="100%" y2="100%">
      <stop offset="0%" stop-color="#2c3e50" />
      <stop offset="50%" stop-color="#000000" />
    </linearGradient>
    <linearGradient id="wingGrad" x1="0%" y1="0%" x2="100%" y2="50%">
      <stop offset="0%" stop-color="#434343" />
      <stop offset="100%" stop-color="#111111" />
    </linearGradient>
  </defs>

  <!-- Branch -->
  <path d="M20,160 Q100,150 180,170" stroke="#795548" stroke-width="8" fill="none" stroke-linecap="round"/>

  <!-- Tail -->
  <path d="M40,160 Q30,190 20,195 L30,165 Z" fill="#000000"/>
  <path d="M40,160 Q50,190 60,195 L45,160 Z" fill="#111111"/>

  <!-- Feet -->
  <path d="M90,155 L90,165" stroke="#aaa" stroke-width="3"/>
  <path d="M95,155 L95,165" stroke="#aaa" stroke-width="3"/>

  <!-- Body -->
  <path d="M40,160 Q30,110 60,90 Q90,70 120,80 Q140,90 130,120 Q110,160 50,160Z" fill="url(#bodyGrad)"/>

  <!-- Head -->
  <circle cx="120" cy="85" r="25" fill="#000000"/>

  <!-- Beak -->
  <path d="M140,80 Q160,85 160,90 Q150,95 135,90Z" fill="#bdc3c7"/>
  
  <!-- Eye (Red with black pupil) -->
  <circle cx="125" cy="80" r="5" fill="#D32F2F"/>
  <circle cx="125" cy="80" r="2" fill="black"/>
  <circle cx="126" cy="79" r="0.8" fill="white"/> <!-- Glint -->

  <!-- Wing -->
  <path d="M60,110 Q90,100 110,120 Q100,150 70,140 Z" fill="url(#wingGrad)"/>
  <path d="M60,110 Q80,115 100,115" stroke="#333" stroke-width="1" fill="none"/>

</svg>
