<svg xmlns="http://www.w3.org/2000/svg" width="200" height="200" viewBox="0 0 200 200"><defs><linearGradient id="bodyGrad" x1="0%" x2="100%" y1="0%" y2="100%"><stop offset="0%" stop-color="#2c3e50"/><stop offset="50%" stop-color="#000"/></linearGradient><linearGradient id="wingGrad" x1="0%" x2="100%" y1="0%" y2="50%"><stop offset="0%" stop-color="#434343"/><stop offset="100%" stop-color="#111"/></linearGradient></defs><path fill="#000" d="M40,160 Q30,190 20,195 L30,165 Z"/><path fill="#111" d="M40,160 Q50,190 60,195 L45,160 Z"/><g fill="none" stroke="#999" stroke-width="3"><path d="M90,155 Q90,165 85,170"/><path d="M95,155 Q95,165 100,170"/></g><path fill="url(#bodyGrad)" d="M40,160 Q30,110 60,90 Q90,70 120,80 Q140,90 130,120 Q110,160 50,160Z"/><circle cx="120" cy="85" r="25" fill="#000"/><path fill="#bdc3c7" d="M140,80 Q160,85 160,90 Q150,95 135,90Z"/><circle cx="125" cy="80" r="5" fill="#D32F2F"/><circle cx="125" cy="80" r="2" fill="#000"/><circle cx="126" cy="79" r=".8" fill="#fff"/><path fill="url(#wingGrad)" d="M60,110 Q90,100 110,120 Q100,150 70,140 Z"/><path fill="none" stroke="#333" stroke-width="1" d="M60,110 Q80,115 100,115"/></svg>