<svg xmlns="http://www.w3.org/2000/svg" width="150" height="300" viewBox="0 0 150 300"><defs><linearGradient id="bucketGrad" x1="0%" x2="100%" y1="0%" y2="0%"><stop offset="0%" stop-color="#E91E63"/><stop offset="50%" stop-color="#F48FB1"/><stop offset="100%" stop-color="#C2185B"/></linearGradient><filter id="bucketGlow"><feGaussianBlur result="coloredBlur" stdDeviation="3"/><feMerge><feMergeNode in="coloredBlur"/><feMergeNode in="SourceGraphic"/></feMerge></filter></defs><g transform="translate(75, 40)"><ellipse cx="0" cy="0" fill="#880E4F" stroke="#F8BBD0" stroke-width="1" rx="40" ry="12"/><path fill="url(#bucketGrad)" d="M-40,0 L-40,100 A40,12 0 0,0 40,100 L40,0 A40,12 0 0,0 -40,0" filter="url(#bucketGlow)" opacity=".95"><animate attributeName="opacity" dur="2s" repeatCount="indefinite" values="0.9;1;0.9"/></path><path fill="none" stroke="#880E4F" stroke-width=".5" d="M-40,25 Q0,35 40,25" opacity=".4"/><path fill="none" stroke="#880E4F" stroke-width=".5" d="M-40,50 Q0,60 40,50" opacity=".4"/><path fill="none" stroke="#880E4F" stroke-width=".5" d="M-40,75 Q0,85 40,75" opacity=".4"/><ellipse cx="0" cy="100" fill="none" stroke="#F8BBD0" stroke-width="1.5" rx="40" ry="12"/></g><g><path fill="none" stroke="#F48FB1" stroke-width="3" d="M0,0 Q15,40 0,140" transform="translate(75, 140)"><animate attributeName="d" dur="3s" repeatCount="indefinite" values="M0,0 Q15,40 0,140; M0,0 Q-15,40 0,140; M0,0 Q15,40 0,140"/></path><path fill="none" stroke="#F06292" stroke-width="2" d="M-15,0 Q-25,40 -10,120" opacity=".8" transform="translate(75, 140)"><animate attributeName="d" dur="4s" repeatCount="indefinite" values="M-15,0 Q-25,40 -10,120; M-15,0 Q0,40 -10,120; M-15,0 Q-25,40 -10,120"/></path><path fill="none" stroke="#F06292" stroke-width="2" d="M15,0 Q25,40 10,120" opacity=".8" transform="translate(75, 140)"><animate attributeName="d" dur="3.5s" repeatCount="indefinite" values="M15,0 Q25,40 10,120; M15,0 Q0,40 10,120; M15,0 Q25,40 10,120"/></path></g></svg>