<svg xmlns="http://www.w3.org/2000/svg" width="1000" height="150" preserveAspectRatio="none" viewBox="0 0 1000 150"><defs><radialGradient id="glassRed" cx="30%" cy="30%" r="80%"><stop offset="0%" stop-color="#fff" stop-opacity=".9"/><stop offset="20%" stop-color="#FFEBEE" stop-opacity=".8"/><stop offset="50%" stop-color="#EF5350" stop-opacity=".9"/><stop offset="100%" stop-color="#B71C1C" stop-opacity="1"/></radialGradient><radialGradient id="glassYellow" cx="30%" cy="30%" r="80%"><stop offset="0%" stop-color="#fff" stop-opacity=".9"/><stop offset="20%" stop-color="#FFFDE7" stop-opacity=".8"/><stop offset="50%" stop-color="#FFEE58" stop-opacity=".9"/><stop offset="100%" stop-color="#F57F17" stop-opacity="1"/></radialGradient><radialGradient id="glassBlue" cx="30%" cy="30%" r="80%"><stop offset="0%" stop-color="#fff" stop-opacity=".9"/><stop offset="20%" stop-color="#E3F2FD" stop-opacity=".8"/><stop offset="50%" stop-color="#29B6F6" stop-opacity=".9"/><stop offset="100%" stop-color="#01579B" stop-opacity="1"/></radialGradient><radialGradient id="glassGreen" cx="30%" cy="30%" r="80%"><stop offset="0%" stop-color="#fff" stop-opacity=".9"/><stop offset="20%" stop-color="#E8F5E9" stop-opacity=".8"/><stop offset="50%" stop-color="#66BB6A" stop-opacity=".9"/><stop offset="100%" stop-color="#1B5E20" stop-opacity="1"/></radialGradient><radialGradient id="glassOrange" cx="30%" cy="30%" r="80%"><stop offset="0%" stop-color="#fff" stop-opacity=".9"/><stop offset="20%" stop-color="#FFF3E0" stop-opacity=".8"/><stop offset="50%" stop-color="#FFA726" stop-opacity=".9"/><stop offset="100%" stop-color="#E65100" stop-opacity="1"/></radialGradient><radialGradient id="glassPink" cx="30%" cy="30%" r="80%"><stop offset="0%" stop-color="#fff" stop-opacity=".9"/><stop offset="20%" stop-color="#FCE4EC" stop-opacity=".8"/><stop offset="50%" stop-color="#EC407A" stop-opacity=".9"/><stop offset="100%" stop-color="#880E4F" stop-opacity="1"/></radialGradient><pattern id="filamentPattern" width="10" height="10" patternUnits="userSpaceOnUse"><path fill="none" stroke="gold" stroke-width=".5" d="M2,8 L5,2 L8,8" opacity=".6"/></pattern><filter id="bloom" width="200%" height="200%" x="-50%" y="-50%"><feGaussianBlur result="coloredBlur" stdDeviation="3"/><feMerge><feMergeNode in="coloredBlur"/><feMergeNode in="SourceGraphic"/></feMerge></filter><linearGradient id="socketGrad" x1="0%" x2="0%" y1="0%" y2="100%"><stop offset="0%" stop-color="#424242"/><stop offset="50%" stop-color="#212121"/><stop offset="100%" stop-color="#000"/></linearGradient></defs><path fill="none" stroke="#333" stroke-linecap="round" stroke-width="2.5" d="M0,10 Q166,50 333,10 T666,10 T1000,10"/><symbol id="bulb-realistic" viewBox="0 0 20 30"><rect width="6" height="6" x="7" y="0" fill="url(#socketGrad)" rx="1"/><rect width="6" height="1" x="7" y="1" fill="#666" opacity=".3"/><rect width="6" height="1" x="7" y="3" fill="#666" opacity=".3"/><path d="M10,6 Q16,6 16,14 Q16,22 10,26 Q4,22 4,14 Q4,6 10,6"/><path fill="none" stroke="#FFC107" stroke-width=".5" d="M8,10 L10,16 L12,10" opacity=".8"/></symbol><g transform="translate(40, 22)"><use width="20" height="30" fill="url(#glassRed)" href="#bulb-realistic"/><path fill="url(#glassRed)" d="M10,6 Q16,6 16,14 Q16,22 10,26 Q4,22 4,14 Q4,6 10,6" filter="url(#bloom)" opacity=".8" transform="translate(0,0) scale(1)"><animate attributeName="opacity" dur="0.9s" repeatCount="indefinite" values="0.6;1;0.6"/></path></g><g transform="translate(100, 36)"><use width="20" height="30" fill="url(#glassYellow)" href="#bulb-realistic"/><path fill="url(#glassYellow)" d="M10,6 Q16,6 16,14 Q16,22 10,26 Q4,22 4,14 Q4,6 10,6" filter="url(#bloom)" opacity=".8"><animate attributeName="opacity" dur="1.2s" repeatCount="indefinite" values="0.6;1;0.6"/></path></g><g transform="translate(160, 42)"><use width="20" height="30" fill="url(#glassBlue)" href="#bulb-realistic"/><path fill="url(#glassBlue)" d="M10,6 Q16,6 16,14 Q16,22 10,26 Q4,22 4,14 Q4,6 10,6" filter="url(#bloom)" opacity=".8"><animate attributeName="opacity" dur="1.0s" repeatCount="indefinite" values="0.6;1;0.6"/></path></g><g transform="translate(220, 36)"><use width="20" height="30" fill="url(#glassGreen)" href="#bulb-realistic"/><path fill="url(#glassGreen)" d="M10,6 Q16,6 16,14 Q16,22 10,26 Q4,22 4,14 Q4,6 10,6" filter="url(#bloom)" opacity=".8"><animate attributeName="opacity" dur="1.5s" repeatCount="indefinite" values="0.6;1;0.6"/></path></g><g transform="translate(280, 22)"><use width="20" height="30" fill="url(#glassOrange)" href="#bulb-realistic"/><path fill="url(#glassOrange)" d="M10,6 Q16,6 16,14 Q16,22 10,26 Q4,22 4,14 Q4,6 10,6" filter="url(#bloom)" opacity=".8"><animate attributeName="opacity" dur="0.8s" repeatCount="indefinite" values="0.6;1;0.6"/></path></g><g transform="translate(340, 15)"><use width="20" height="30" fill="url(#glassPink)" href="#bulb-realistic"/><path fill="url(#glassPink)" d="M10,6 Q16,6 16,14 Q16,22 10,26 Q4,22 4,14 Q4,6 10,6" filter="url(#bloom)" opacity=".8"><animate attributeName="opacity" dur="1.3s" repeatCount="indefinite" values="0.6;1;0.6"/></path></g><g transform="translate(400, 28)"><use width="20" height="30" fill="url(#glassRed)" href="#bulb-realistic"/><path fill="url(#glassRed)" d="M10,6 Q16,6 16,14 Q16,22 10,26 Q4,22 4,14 Q4,6 10,6" filter="url(#bloom)" opacity=".8"><animate attributeName="opacity" dur="1.1s" repeatCount="indefinite" values="0.6;1;0.6"/></path></g><g transform="translate(460, 42)"><use width="20" height="30" fill="url(#glassYellow)" href="#bulb-realistic"/><path fill="url(#glassYellow)" d="M10,6 Q16,6 16,14 Q16,22 10,26 Q4,22 4,14 Q4,6 10,6" filter="url(#bloom)" opacity=".8"><animate attributeName="opacity" dur="1.4s" repeatCount="indefinite" values="0.6;1;0.6"/></path></g><g transform="translate(520, 42)"><use width="20" height="30" fill="url(#glassBlue)" href="#bulb-realistic"/><path fill="url(#glassBlue)" d="M10,6 Q16,6 16,14 Q16,22 10,26 Q4,22 4,14 Q4,6 10,6" filter="url(#bloom)" opacity=".8"><animate attributeName="opacity" dur="1.6s" repeatCount="indefinite" values="0.6;1;0.6"/></path></g><g transform="translate(580, 28)"><use width="20" height="30" fill="url(#glassGreen)" href="#bulb-realistic"/><path fill="url(#glassGreen)" d="M10,6 Q16,6 16,14 Q16,22 10,26 Q4,22 4,14 Q4,6 10,6" filter="url(#bloom)" opacity=".8"><animate attributeName="opacity" dur="1.2s" repeatCount="indefinite" values="0.6;1;0.6"/></path></g><g transform="translate(640, 15)"><use width="20" height="30" fill="url(#glassPink)" href="#bulb-realistic"/><path fill="url(#glassPink)" d="M10,6 Q16,6 16,14 Q16,22 10,26 Q4,22 4,14 Q4,6 10,6" filter="url(#bloom)" opacity=".8"><animate attributeName="opacity" dur="0.9s" repeatCount="indefinite" values="0.6;1;0.6"/></path></g><g transform="translate(700, 22)"><use width="20" height="30" fill="url(#glassOrange)" href="#bulb-realistic"/><path fill="url(#glassOrange)" d="M10,6 Q16,6 16,14 Q16,22 10,26 Q4,22 4,14 Q4,6 10,6" filter="url(#bloom)" opacity=".8"><animate attributeName="opacity" dur="1.3s" repeatCount="indefinite" values="0.6;1;0.6"/></path></g><g transform="translate(760, 36)"><use width="20" height="30" fill="url(#glassRed)" href="#bulb-realistic"/><path fill="url(#glassRed)" d="M10,6 Q16,6 16,14 Q16,22 10,26 Q4,22 4,14 Q4,6 10,6" filter="url(#bloom)" opacity=".8"><animate attributeName="opacity" dur="1.5s" repeatCount="indefinite" values="0.6;1;0.6"/></path></g><g transform="translate(820, 42)"><use width="20" height="30" fill="url(#glassBlue)" href="#bulb-realistic"/><path fill="url(#glassBlue)" d="M10,6 Q16,6 16,14 Q16,22 10,26 Q4,22 4,14 Q4,6 10,6" filter="url(#bloom)" opacity=".8"><animate attributeName="opacity" dur="1.1s" repeatCount="indefinite" values="0.6;1;0.6"/></path></g><g transform="translate(880, 36)"><use width="20" height="30" fill="url(#glassYellow)" href="#bulb-realistic"/><path fill="url(#glassYellow)" d="M10,6 Q16,6 16,14 Q16,22 10,26 Q4,22 4,14 Q4,6 10,6" filter="url(#bloom)" opacity=".8"><animate attributeName="opacity" dur="1.7s" repeatCount="indefinite" values="0.6;1;0.6"/></path></g><g transform="translate(940, 22)"><use width="20" height="30" fill="url(#glassPink)" href="#bulb-realistic"/><path fill="url(#glassPink)" d="M10,6 Q16,6 16,14 Q16,22 10,26 Q4,22 4,14 Q4,6 10,6" filter="url(#bloom)" opacity=".8"><animate attributeName="opacity" dur="1.0s" repeatCount="indefinite" values="0.6;1;0.6"/></path></g></svg>