<svg xmlns="http://www.w3.org/2000/svg" width="500" height="500" viewBox="0 0 500 500"><defs><radialGradient id="flameGrad" cx="50%" cy="80%" r="50%"><stop offset="0%" stop-color="#FFF9C4"/><stop offset="30%" stop-color="#FFD54F"/><stop offset="60%" stop-color="#FF8F00"/><stop offset="100%" stop-color="#FF3D00" stop-opacity="0"/></radialGradient><filter id="softGlow"><feGaussianBlur result="blur" stdDeviation="6"/><feComposite in="SourceGraphic" in2="blur" operator="over"/></filter><linearGradient id="lotusGrad" x1="0%" x2="0%" y1="0%" y2="100%"><stop offset="0%" stop-color="#FCE4EC"/><stop offset="50%" stop-color="#F48FB1"/><stop offset="100%" stop-color="#C2185B"/></linearGradient><pattern id="flagPattern" width="10" height="50" x="0" y="0" patternUnits="userSpaceOnUse"><rect width="2" height="50" x="0" y="0" fill="#00F"/><rect width="2" height="50" x="2" y="0" fill="#FF0"/><rect width="2" height="50" x="4" y="0" fill="red"/><rect width="2" height="50" x="6" y="0" fill="#FFF"/><rect width="2" height="50" x="8" y="0" fill="#FF8000"/></pattern></defs><ellipse cx="250" cy="450" fill="navy" filter="url(#softGlow)" opacity=".1" rx="200" ry="30"/><g transform="translate(100, 440) scale(0.6)"><path fill="#6D4C41" stroke="#3E2723" stroke-width="2" d="M-40,0 Q-40,40 0,50 Q40,40 40,0 Q0,15 -40,0 Z"/><ellipse cx="0" cy="0" fill="#5D4037" rx="40" ry="10"/><path fill="url(#flameGrad)" d="M-10,-5 Q0,-35 10,-5" filter="url(#softGlow)"><animate attributeName="opacity" dur="0.4s" repeatCount="indefinite" values="0.7;1;0.7"/></path></g><g transform="translate(250, 420)"><path fill="#795548" stroke="#3E2723" stroke-width="2.5" d="M-60,0 Q-60,50 0,65 Q60,50 60,0 Q0,20 -60,0 Z"/><ellipse cx="0" cy="0" fill="#5D4037" rx="60" ry="15"/><ellipse cx="0" cy="2" fill="#8D6E63" rx="55" ry="12"/><path fill="url(#flameGrad)" d="M-5,-10 Q0,-60 5,-10" filter="url(#softGlow)"><animate attributeName="d" dur="0.3s" repeatCount="indefinite" values="M-5,-10 Q0,-60 5,-10; M-7,-10 Q2,-65 7,-10; M-5,-10 Q0,-60 5,-10"/></path></g><g transform="translate(400, 440) scale(0.7)"><path fill="#5D4037" stroke="#3E2723" stroke-width="2" d="M-40,0 Q-40,40 0,50 Q40,40 40,0 Q0,15 -40,0 Z"/><ellipse cx="0" cy="0" fill="#4E342E" rx="40" ry="10"/><path fill="url(#flameGrad)" d="M-5,-5 Q0,-45 5,-5" filter="url(#softGlow)"><animate attributeName="opacity" dur="0.5s" repeatCount="indefinite" values="0.8;1;0.8"/></path></g><g><path fill="url(#lotusGrad)" d="M0,0 Q-30,-20 -60,0 Q-30,20 0,0" opacity=".9" transform="translate(80, 460) scale(0.9)"/><path fill="url(#lotusGrad)" d="M0,0 Q30,-20 60,0 Q30,20 0,0" opacity=".9" transform="translate(80, 460) scale(0.9)"/><path fill="url(#lotusGrad)" d="M0,0 Q0,-50 20,-10" transform="translate(80, 460) scale(0.9)"/><path fill="url(#lotusGrad)" d="M0,0 Q0,-50 -20,-10" transform="translate(80, 460) scale(0.9)"/></g><circle cx="100" cy="300" r="3" fill="#FFF59D" filter="url(#softGlow)"><animate attributeName="cy" dur="5s" repeatCount="indefinite" values="300;280;300"/><animate attributeName="opacity" dur="3s" repeatCount="indefinite" values="0;0.8;0"/></circle><circle cx="350" cy="250" r="2" fill="#FFF59D" filter="url(#softGlow)"><animate attributeName="opacity" begin="1s" dur="4s" repeatCount="indefinite" values="0;1;0"/></circle></svg>