<svg xmlns="http://www.w3.org/2000/svg" width="200" height="400" viewBox="0 0 200 400"><defs><linearGradient id="lanternGrad" x1="0%" x2="100%" y1="0%" y2="100%"><stop offset="0%" stop-color="#FFF176"/><stop offset="100%" stop-color="#F9A825"/></linearGradient><filter id="glow"><feGaussianBlur result="coloredBlur" stdDeviation="5"/><feMerge><feMergeNode in="coloredBlur"/><feMergeNode in="SourceGraphic"/></feMerge></filter></defs><g><path fill="url(#lanternGrad)" stroke="#F57F17" stroke-width="2" d="M 0 -80 L 70 -40 L 70 40 L 0 80 L -70 40 L -70 -40 Z" filter="url(#glow)" transform="translate(100, 100)"><animate attributeName="fill" dur="3s" repeatCount="indefinite" values="#FFF176;#FFD54F;#FFF176"/></path><path stroke="#F57F17" stroke-width="1" d="M 0 -80 L 0 80 M -70 -40 L 70 -40 M -70 40 L 70 40" opacity=".5" transform="translate(100, 100)"/></g><g><path fill="none" stroke="#FFF59D" stroke-width="3" d="M0,0 Q10,50 0,180" opacity=".9" transform="translate(100, 180)"><animate attributeName="d" dur="4s" repeatCount="indefinite" values="M0,0 Q10,50 0,180; M0,0 Q-10,50 0,180; M0,0 Q10,50 0,180"/></path><path fill="none" stroke="#FFF59D" stroke-width="2" d="M-20,0 Q-30,40 -20,150" opacity=".7" transform="translate(100, 180)"><animate attributeName="d" dur="3.5s" repeatCount="indefinite" values="M-20,0 Q-30,40 -20,150; M-20,0 Q-10,40 -20,150; M-20,0 Q-30,40 -20,150"/></path><path fill="none" stroke="#FFF59D" stroke-width="2" d="M20,0 Q30,40 20,150" opacity=".7" transform="translate(100, 180)"><animate attributeName="d" dur="3s" repeatCount="indefinite" values="M20,0 Q30,40 20,150; M20,10 Q10,40 20,150; M20,0 Q30,40 20,150"/></path><path fill="none" stroke="#FFF59D" stroke-width="1.5" d="M-40,-20 Q-50,30 -40,120" opacity=".5" transform="translate(100, 180)"><animate attributeName="d" dur="5s" repeatCount="indefinite" values="M-40,-20 Q-50,30 -40,120; M-40,-20 Q-30,30 -40,120; M-40,-20 Q-50,30 -40,120"/></path><path fill="none" stroke="#FFF59D" stroke-width="1.5" d="M40,-20 Q50,30 40,120" opacity=".5" transform="translate(100, 180)"><animate attributeName="d" dur="4.5s" repeatCount="indefinite" values="M40,-20 Q50,30 40,120; M40,-20 Q30,30 40,120; M40,-20 Q50,30 40,120"/></path></g></svg>